<svg id="Layer_1" data-name="Layer 1" xmlns="http://www.w3.org/2000/svg" viewBox="0 0 275 73"><defs><style>.cls-1{fill:#fff;}</style></defs><title>footer</title><path class="cls-1" d="M265.85,8.93H8.93V64H265.85ZM49.38,59.86a5.4,5.4,0,0,0,.22-3.62s.64,0,1.69,2.32c.5,1.1,1.1,1.3,1.1,1.3Zm8.55,0S58,57,57.33,56a23.53,23.53,0,0,1,3.11,3.89Zm26.77,0H62a9.79,9.79,0,0,0,.29-2.31,5.42,5.42,0,0,0-1.17-3.78s2.76.44,4.21,4.72h.33s.24-3.92-1.3-5.36c0,0,5.28.74,7.18,4.4l0,.09h.36s1-6.18-1.41-8a13.6,13.6,0,0,1,6.09,7.62h.17s.74-3.71-.91-6.25a3.73,3.73,0,0,1,1.3,1.19,20,20,0,0,1,2.6,4.32A2.69,2.69,0,0,0,81.87,58a3.12,3.12,0,0,1-1-3,4,4,0,0,0,3.82-2.45Zm0-11.05-.76.78c-3.42-1-5.33.46-5.33.46a18.62,18.62,0,0,0-16.38-1.4c6.38.45,8.2,3.55,8.2,3.55a15.24,15.24,0,0,0-10.55-1.48c-4.87,1-5.59,3.63-5.92,4.95a4.5,4.5,0,0,0,.36,2.57,9.3,9.3,0,0,1-2.2-2.61c-1.59-2.71-1.16-5.39-2.23-7.16a3.88,3.88,0,0,0-1.57-1.54c-.82-.35-1.6-.35-2.28-.64a3.64,3.64,0,0,1-1.88-1.91c.07.59.13,2.16,1,2.82,1,.8,1.86.61,3.09,1.89,1.9,2,2.71,6.15,2.71,6.15-4.09-5.67-12.84-5.88-12.84-5.88A4,4,0,0,1,36.9,46.7a4.67,4.67,0,0,0-.47,1.4,7.67,7.67,0,0,0,0,1.88,16.24,16.24,0,0,0-4.86,3.72,8,8,0,0,0-1.79,2.81,15.35,15.35,0,0,1,6.85-3.95,14.06,14.06,0,0,1,5.52-.36,13.94,13.94,0,0,0-4.27,1.41,21.23,21.23,0,0,0-5.07,3.91,18.36,18.36,0,0,1,3.81-2.1,23.07,23.07,0,0,1,8-1.76c-2,1-2.68,3.91-2.68,3.91a16.83,16.83,0,0,0,4.22-1.21,10.75,10.75,0,0,0,1.53-.92,6.34,6.34,0,0,0-1.76,4.4h-29c4.41-12.44,8.5-18,8.5-18-5,5-10.77,18-10.77,18H13.05V51c5.91-8.43,7.51-9.44,7.51-9.44s-.77.05-1.35.11a5.39,5.39,0,0,0-.64.11c-1.26,1-5.18,5.58-5.33,5.64s-.19-.25-.19-.25V41c3.71-4.41,5.16-5.3,7.33-6.73a7.88,7.88,0,0,0,2.67-3,6,6,0,0,1-1.88,1.17,12.26,12.26,0,0,0-1.67.38,2.43,2.43,0,0,0-1.35.9c.18-1.12.93-2.31,2.62-3.73a14.15,14.15,0,0,1,2.35-1.57,8.68,8.68,0,0,1,3.2-.94,12.72,12.72,0,0,0-2.88.18,12.81,12.81,0,0,0-6.23,3.62c-1.71,1.78-4.14,5-4.14,5V13.07H84.75Zm66.4,4.79s-3.57-10.56-5-12.43l-11-.66s-4.22,10.83-7,16.08h-5a2,2,0,0,0,.15-2.42c-.55-.81-6.71-7.44-8.33-9.06s-2.26-3.23-4-5.17-3-2.37-2.91-3.4c.09-.66,1.29-1.4,1.73-1.45a4.84,4.84,0,0,0,2.3-.37c1.11-.52,4-1.66,5-3.47a7.17,7.17,0,0,0,.22-6.39c-1-2.37-3.61-3-5.82-3s-4.82.43-5.69,1.86a77.54,77.54,0,0,0-.39,9.19c.07,6.88.55,16.4-.78,23.32a6.32,6.32,0,0,0-1.6-1c-.42-.13-3.32-.26-4.51-.6s-2.06-.44-2.57-1.26a1.13,1.13,0,0,1,.4-1.16c.34-.28.85-7.56.75-12.4s-.87-10.45-.87-13,.72-3.76.51-4.68A1.17,1.17,0,0,0,95,21.29c-.46.2-2.71.58-3.38,0l6-4.47,5.89,3.11s.89.26,1.27-.05c1.29-1,6.37-2.45,10.54-2.51s6.77,1.5,8.45,4.59a8.86,8.86,0,0,1-1.41,10.29,23.48,23.48,0,0,1-3.92,3.31l7.41,10.9h.49s1-2.47,2.33-5.42,3.17-6.65,4.35-9.6c1.9-4.72,3.49-8.82,3.55-9.3A1.94,1.94,0,0,0,134.9,20c-.8,0-3.7.13-4.14,0a.57.57,0,0,1-.45-.87L133.25,18l10.5.17a1.11,1.11,0,0,1,1.13,1.06,96.59,96.59,0,0,0,3.42,9.61,201.87,201.87,0,0,0,12.22,24.75ZM178.61,42a65,65,0,0,1-6.34,8.28A41,41,0,0,1,166,56l-.09-1.46c-.26-2.8-.55-3.38-2.41-8S147.64,20,147.64,20a44.63,44.63,0,0,0,7.55-2.58,56.89,56.89,0,0,0,3.05,5.65c1.23,1.88,2.77,4.2,5.95,9.18a107.76,107.76,0,0,1,6.07,11.36H171c1.39-1.38,4.29-7.28,5.23-9.21a48.55,48.55,0,0,0,2.31-7.69,6.09,6.09,0,0,0,.14-2.13A2.08,2.08,0,0,0,177,23.29a19.34,19.34,0,0,0-2.87-.17c-1,0-9.53.13-9.85.3s-.51.86-.74.42a2.52,2.52,0,0,1,.62-2.13c.57-.79,5.35-3.49,5.35-3.49h15.22s2.68-.17,2.88.28a3.62,3.62,0,0,1-.28,2.29c-.35.93-.82,2.39-4.2,12.14A42.73,42.73,0,0,1,178.61,42Zm35.81,11.12c-1.26,1.14-4.48,3.91-5,4.33h-2.53A42.08,42.08,0,0,0,202,55.23c-2.08-.7-5.64-2.93-8.79-5.15a16.57,16.57,0,0,1-6.81-9.68c-1.23-4.58.46-10.83,1-12.67.76-2.68,2.15-5.08,3.53-6.14a16.22,16.22,0,0,1,5-2.92,16,16,0,0,1,3.39-.85,38.28,38.28,0,0,1,6.14,0c2.5.52,3.82,1.26,5,1.24a2.94,2.94,0,0,0,2.55-1.17c.49-.54.58-.61.8-.39v11.9a12.44,12.44,0,0,0-3.68-4.27,9.47,9.47,0,0,0-4.52-1.44c-1-.18-3.52-1-5.28-.8s-4.28.62-5.42,2.65-2.08,4.09-2,5.92.54,2,1,2.3,2.82.35,4,.37,11.48.35,13.49.3a7.41,7.41,0,0,0,2.59-.3,4.32,4.32,0,0,0,1.45-1.09,2,2,0,0,1-.16,1.42,35.31,35.31,0,0,1-2.1,3.16c-.35.64-.62,1.43-1.14,1.44-.77,0-.42-.57-1.43-1a38.08,38.08,0,0,0-8.44-1.34c-2.9,0-7,.22-7.93.6-.74.3-.52,1.69-.29,2.18.84,1.8,1.58,4,4,5.62A31.17,31.17,0,0,0,204.57,49c2.92,1.21,3.67,2,4.84,2a16.92,16.92,0,0,0,3.26-.92,16.45,16.45,0,0,1,2.83-.55,8.17,8.17,0,0,0,2.14-.8A27.43,27.43,0,0,1,214.42,53.07ZM256,20.89A7.88,7.88,0,0,0,255,23.77c0,.67,0,2.12.06,8.13.08,9.35.32,15.94.32,18.74s-.23,2.84-.43,3.23A18.45,18.45,0,0,1,252.37,56c-.47.35-.78.12-1-.27s0-.74-.51-1.52c-.81-1.24-4-4.48-7.44-7.79s-17-15.3-17-15.3c.12,1.41.16,15.58.12,16.82s.15,3.27-.7,5-4.52,3.38-4.52,3.38h-3.83s.67-.64,1.11-1.15.87-1.69,1.69-2.92c.62-.93.64-2.84.89-4.92s.11-7.6.11-10.77-.3-12-.5-12.57-1.88-1.91-2.65-2.72-1.8-1.71-1.83-2.11.2-.47.64-.47,7.6-.1,8,0a3.21,3.21,0,0,1,.88.49c5.41,5.88,19,17.83,20.16,19,.18.17,2,2.25,2.67,2.25s.58-.62.95-1.36a8.57,8.57,0,0,0,.66-3.39V27.85c0-2.85-.39-4.75-.86-5.5a4.38,4.38,0,0,0-2.63-1.41,3.38,3.38,0,0,1-2-1.26c-.22-.4,0-.67.47-.67,2.62,0,4.27.14,5.83.13,4,0,5.56-.79,5.71.37C256.83,19.93,256.55,20.15,256,20.89Z"/><path class="cls-1" d="M140.79,25.85l-4.56,11.43,8.68.49s-1.18-2.74-2.17-5.59C141.67,29.08,140.79,25.85,140.79,25.85Z"/><path class="cls-1" d="M53.09,38.29h0Z"/><path class="cls-1" d="M52.91,18.6a8.3,8.3,0,0,1,1.52,2.15,1.2,1.2,0,0,0,.61.54c.28.15,1.72.62,2.47.87s2.44.74,3.86,1.15a33.84,33.84,0,0,1,3.29,1.23,48.49,48.49,0,0,1,5.85,2.9,15.72,15.72,0,0,1,3.41,3c.43.46,2.38,2.86,2.63,3.23a17.33,17.33,0,0,1,1.11,2c.48,1,1,2.66,1.1,2.81s.12.63,0,.65a3.15,3.15,0,0,1-2.42-.26,2.19,2.19,0,0,0-1-.32,4,4,0,0,0-.67.13,10.17,10.17,0,0,1-2.37.22c-1.4,0-1.94-.19-3.24-.29-2.39-.18-3.37-.11-4.41-.15-2.95-.1-7.45,0-8.49-.07-1.29-.15-2.82-.17-3.14-.17-.86,0-2.21,0-2.21,0-.84.16-.81.67-.81.87a1.37,1.37,0,0,0,.55,1.14,3.63,3.63,0,0,0,2.27.47c-.84.9-2.94.9-2.94.9a3.66,3.66,0,0,0,1.49,1.18,4.45,4.45,0,0,0,1.46.37,4.35,4.35,0,0,1-1.36.17,4.55,4.55,0,0,1,1.19,1,1.77,1.77,0,0,1,.23,1c-.13-.45-.92-.79-1.3-.91a2.93,2.93,0,0,1-.85-.52,2.18,2.18,0,0,0,.74,1.27,11.84,11.84,0,0,0,1.21.68,3,3,0,0,1,1.06.91,4.71,4.71,0,0,1,.28.86s-.62-.73-1-.76a.81.81,0,0,0-.51.13c-.06.07,0,.3.08.42a5.9,5.9,0,0,0,.71.5,3.86,3.86,0,0,0,.78.4c.16.07.3.26.5.3a.58.58,0,0,0,.43,0c.18-.07,1.68-.86,2.46-1.21s3.32-1.36,4.31-1.63,2.64-.68,3.58-.85c8.2-1.5,13.38,2.2,13.38,2.2a3.63,3.63,0,0,1,1.2-.54,4.12,4.12,0,0,1,1.38,0V16.76H49.46s.63.19,1,.32A10.48,10.48,0,0,1,52.91,18.6Z"/><path class="cls-1" d="M60.32,37.25c2.48,0,7,.33,7.83.36a17.08,17.08,0,0,1,1.86.17,19.65,19.65,0,0,0,2,.11,16.55,16.55,0,0,0,2.13,0c.53-.25-1-.68-1.31-.83-.59-.26-2.23-.9-2.88-1.12s-1.53-.46-2.45-.73-2.8-.91-3.26-1-1.07-.18-2-.35c-.75-.14-3.58-.62-3.94-.66s-1,0-2.5-.13-3.36-.26-4.27-.34-3.08-.29-4.64-.29a28.21,28.21,0,0,0-3,.16c-.52,0-1.67.2-1.67.2a.21.21,0,0,0,0,.18c0,.08.22.12.33.2s.66.3,1.1.57,1,.76,1.59,1.1a12.2,12.2,0,0,0,5.17,1.56A93.15,93.15,0,0,0,60.32,37.25Z"/><path class="cls-1" d="M42.82,31.2a3.82,3.82,0,0,0-.69-.14,1.4,1.4,0,0,0-.62-.17c-.41,0-.64,0-.74.27,0,.06.13.39.28.41s.31.05.56.11a6.27,6.27,0,0,0,1.32,0C43.09,31.6,43,31.29,42.82,31.2Z"/><path class="cls-1" d="M54,29.08c-.36-.25-.43-.61-.81-.71a13.3,13.3,0,0,1-1.32-.17c-.42-.13-.73-.45-.79-.25s.37.51.51.62.39.4.7.42a1.61,1.61,0,0,0,.94-.18s0,.77-1,.73a2.93,2.93,0,0,1-1.71-.7c-.4-.25-.49-.56-1.18-.62s-1.5.62-2,.84-1.32.33-1.3.53.62.79,1.72.5c0,0-1.08,1.24-3-.11a2.17,2.17,0,0,0-1.26,1.37l0,.16a12.23,12.23,0,0,1,1.55-.14c.75,0,2.89-.17,3.86-.17s2.78.17,3.82.2a26.34,26.34,0,0,1,3,.37c.84.13,4.85.82,7.33,1.31a95.83,95.83,0,0,1,10.06,3.17,14.66,14.66,0,0,0,2,.69c.33.09,2.67,1.37,2.67,1.37a30.21,30.21,0,0,0-2.25-4,35.75,35.75,0,0,0-3.42-3.67,19.43,19.43,0,0,0-5.33-3.37,18.54,18.54,0,0,0-2.51-.87c-.64-.24-4.24-1.43-5.23-1.72s-1.9-.61-2.37-.73-.53-.11-.72,0a.32.32,0,0,0-.14.45c.09.19.29.22.57.24s.51.29.71.35c.58.17.68,0,1.35.12a1.66,1.66,0,0,1,.82.59s-1.12-.44-1.68-.13-.58.48-1.72.21a1.69,1.69,0,0,1-1.33-1,1.54,1.54,0,0,0,.51,1.3,2.33,2.33,0,0,0,1.92.44,2.75,2.75,0,0,1,1.57-.35,1.57,1.57,0,0,1,1.17.68,4,4,0,0,0-1.46-.19,6.15,6.15,0,0,1-2.16.55,3.87,3.87,0,0,1-2.74-1.57c-.46-.53-.44-.75-.62-.58s-.17.4.05.65a5.53,5.53,0,0,0,2,1.65,5.69,5.69,0,0,0,2.34.11c1.36,0,1.66.6,1.66.6a4.51,4.51,0,0,0-1.24-.1c-1.07.06-1.44.28-2.1.27a7.87,7.87,0,0,1-2.72-.7c-.68-.36-.79-.38-.81-.2s.36.61.67.72.89-.06,1.14.27a1,1,0,0,0,.66.47,2.67,2.67,0,0,0,1-.25S54.73,29.6,54,29.08Z"/><path class="cls-1" d="M46.55,38.32a1.93,1.93,0,0,1-.35-.83,12,12,0,0,0-.45,2.45s-.74-.37-1.17-3.32a6.34,6.34,0,0,0,2,6l.56.11S45.91,41.64,46.55,38.32Z"/><path class="cls-1" d="M40,38.34C39.67,38,41.1,36,41.1,36a19.77,19.77,0,0,0-3.24,4.35s1.25-.71,2-1.11A13.11,13.11,0,0,0,41.66,38C41.15,38.26,40.3,38.66,40,38.34Z"/><path class="cls-1" d="M41.63,33.77S38.76,36.19,38.44,36,40,33.27,40,33.27s-2.37,1.38-4.63,6.38c0,0,2.58-2.24,3.64-3.22S41.63,33.77,41.63,33.77Z"/><path class="cls-1" d="M38.26,34.12a7.67,7.67,0,0,0-1.4.76,26,26,0,0,0-2.34,1.82,4.53,4.53,0,0,1,1.74-2.79l1-1.14a4.22,4.22,0,0,0-1.57.62,18.94,18.94,0,0,0-3.23,5.51,5.59,5.59,0,0,1,1.29-1.06A11.49,11.49,0,0,1,36.16,37,11.75,11.75,0,0,1,38.26,34.12Z"/><path class="cls-1" d="M37.75,32a7.88,7.88,0,0,0,2-.87,11.2,11.2,0,0,1-3.35.5,30.47,30.47,0,0,0-3.8.64c.29-.86,1.89-2,2.51-2.28a11.21,11.21,0,0,1,2.46-.54,30.05,30.05,0,0,0-6.88-.18c-1.5.13-1.81.89-1.81.89a4.7,4.7,0,0,1,1.93-.09,8.57,8.57,0,0,1,2.51.53c-1,.71-4.94,5.29-3.75,4.35s4.84-2,5.56-2.25A22.66,22.66,0,0,1,37.75,32Z"/><path class="cls-1" d="M32.24,26.4s-.36.38-1.36,1.22-1.7,1.31-1.7,1.31.89,0,1.33-.08,5.37-3,5.37-3a23.46,23.46,0,0,0-4.25-.21,11,11,0,0,0-3,.68,16.37,16.37,0,0,1,2.05-.16A8.12,8.12,0,0,1,32.24,26.4Z"/><path class="cls-1" d="M50.53,24.36a11.05,11.05,0,0,0-1.13.13c-.16,0-1.18.72-1.9,1a15.66,15.66,0,0,1-2.73.72,9.73,9.73,0,0,1-2.46,0c-.81-.11-1.7-.81-1.72-1.56,0-.46-.37-.75-.93-.84a17.57,17.57,0,0,0-2.57,0l-2.79-.16a4,4,0,0,0,1.36.28c.8,0,1.35.1,2,.17a7.85,7.85,0,0,1,2,.44,1.74,1.74,0,0,1,1.08,1.06c0,.26-.4.21-.83.21a5.47,5.47,0,0,0-1.72.4,10.75,10.75,0,0,0-1.36.91c.16,0,.45-.12,1-.12.38,0,.48.32.66.49a1.35,1.35,0,0,0,.89.18c.42,0,.43.1.3.26s-.74.21-1.07.48-.17.44-.17.44a3.78,3.78,0,0,1,1.45-.44c.44,0,.7.22,1.61.24A9.25,9.25,0,0,0,44,28.24c.64-.16,2.14-.64,2.6-.72s1.15-.09,1.47-.14c.78-.1.78-.34,1.07-.72s.06-.46-.13-.46a8,8,0,0,0-1.32.49,7.44,7.44,0,0,1-1.13.21c-.3.06-.95.43-1.76.64a7.23,7.23,0,0,1-2.14.33,4.61,4.61,0,0,1-2-.22c-.42-.24-.53-.51-.5-.67s.26-.08.42,0a4.42,4.42,0,0,0,1.77.4A18.1,18.1,0,0,0,45.2,27a12,12,0,0,0,2.62-1.1c.65-.35,1.69-.94,1.9-1s.86,0,1.1,0,.51-.43.46-.59S50.77,24.36,50.53,24.36Z"/><path class="cls-1" d="M28,25.7a3.85,3.85,0,0,0,1-.25c.13-.12.13-.18.13-.18s-2,0-2.32,0a4.39,4.39,0,0,0-.93-.19c-.36,0-.54.17-.83.17s-.37-.19-.22-.33.33-.26.24-.39a.21.21,0,0,0-.36,0A5.27,5.27,0,0,1,24,25c-.31.22-.63.46-.63.56s0,.3.44.21a5.26,5.26,0,0,1,1-.18,4.79,4.79,0,0,1,1.17.11,5.51,5.51,0,0,0,1.2.21C27.5,26,27.57,25.79,28,25.7Z"/><path class="cls-1" d="M24.49,22.26A3.67,3.67,0,0,0,22.08,24a4.38,4.38,0,0,1,1.61-.69,7.89,7.89,0,0,1,2,0,2.57,2.57,0,0,1,1.72-.77l-.25-.15A7.77,7.77,0,0,0,24.49,22.26Z"/><path class="cls-1" d="M26.24,21.09a15.7,15.7,0,0,1,3.37.88,19,19,0,0,0,4,1.14,7.33,7.33,0,0,0,2.62-.3,7,7,0,0,1-3.78-1.22,28.52,28.52,0,0,0,3.12.16,5.65,5.65,0,0,0,2.64-.44,31.4,31.4,0,0,1-3.46-.23,8,8,0,0,1-2.38-.7,13.47,13.47,0,0,0-2.59-.74c-.5-.1-2.61-.08-2.61-.08a20.67,20.67,0,0,1,2.44.94,7,7,0,0,0,2.11.45,3.59,3.59,0,0,1-1.68.29c-.73,0-2.16-.64-3.47-.79a3.21,3.21,0,0,0-2.33.84A3.88,3.88,0,0,1,26.24,21.09Z"/><path class="cls-1" d="M28.77,23.7a9.62,9.62,0,0,1,2.82,0,6.25,6.25,0,0,0-2.34-.4,4.42,4.42,0,0,0-3.53,1.24s-.07.17.16.18.66-.15,1.32-.16a19.17,19.17,0,0,1,2.28,0,1.62,1.62,0,0,0-1.24-.51A.52.52,0,0,1,28.77,23.7Z"/><path class="cls-1" d="M34.22,20.37a9.26,9.26,0,0,0,1.9.15c.75.05,1.74-.09,3.35-.06a3.46,3.46,0,0,1,1.75.83,6.56,6.56,0,0,0-2.93-2.64,5.66,5.66,0,0,1,3.45,1.83c.58.71,1.08.6,1.08.6a2.58,2.58,0,0,1-.15-.69,7.35,7.35,0,0,0-.17-1,1.58,1.58,0,0,0-.4-.74s.35-.1.65.41a5.11,5.11,0,0,0,1.74,2.7A5.3,5.3,0,0,0,48,23.06a5.28,5.28,0,0,1-2.3-1.86,8.54,8.54,0,0,1,1.91.88,1.7,1.7,0,0,0,.81.23.9.9,0,0,0-.23-.64c-1.07-.69-3.69-3-4.27-3.54a5,5,0,0,0-1.59-.9,16.93,16.93,0,0,0-6-1.39c-3.15-.14-4.34.75-4.34.75a8,8,0,0,1,3.05.33,5.7,5.7,0,0,1,1.51.64c.14.06.35.41-.09.41a16.74,16.74,0,0,0-4.77-.74c-3,0-4,1.31-4,1.31C30.23,18.3,33.49,20.2,34.22,20.37Z"/><path class="cls-1" d="M46.57,19.68a10,10,0,0,0,2.49,1.7,2.4,2.4,0,0,1-.78-1.23,5.78,5.78,0,0,0-1.09-1.76,5.67,5.67,0,0,0-1.48-1c-.14-.07,0-.09,0-.09A3.2,3.2,0,0,1,48,18.55a14.58,14.58,0,0,1,1.2,2.37,3.19,3.19,0,0,0,1.46,1.46.9.9,0,0,0,.78,0c.53-.38.19-.81-.26-1.44-.25-.34-.89-1.57-1.46-2.41a7.7,7.7,0,0,0-3.5-2.42A29.34,29.34,0,0,0,40.3,15a12.27,12.27,0,0,0-3,.37,17.11,17.11,0,0,1,4.56,1.33A16.16,16.16,0,0,1,46.57,19.68Z"/><path class="cls-1" d="M52.6,21.58a.5.5,0,0,0,.79-.4,5.34,5.34,0,0,0-2.5-2.74l-.37-.1a2.27,2.27,0,0,1,.56.64,4.15,4.15,0,0,1,.52,1.15A3.47,3.47,0,0,0,52.6,21.58Z"/><path class="cls-1" d="M20.63,20.31a7.09,7.09,0,0,0-3.14.76A7.09,7.09,0,0,1,20.93,19a13.59,13.59,0,0,1,1.6-.33,5.7,5.7,0,0,0-2.68,0,2.64,2.64,0,0,1,2.22-1l.89,0a3.88,3.88,0,0,1,.66-.43,5.8,5.8,0,0,1,.78-.31H16.89v6.28A9.07,9.07,0,0,1,20.63,20.31Z"/><path class="cls-1" d="M26.29,42.93a26.57,26.57,0,0,1-1.11,2.48l-2,4,5.09-6.1-.39-.42Z"/><path class="cls-1" d="M28,38l-1.81.67a10.11,10.11,0,0,1,1.68-2.33,4.65,4.65,0,0,0-2.63,2A12,12,0,0,0,24,40.86s1.32-1.06,1.84-1.37S28,38,28,38Z"/><path class="cls-1" d="M27.07,34.92a3.19,3.19,0,0,1-1.81.39c-1.37,0-2,.1-2-.13s1.6-1.76,2-3c0,0-.85.93-2,2s-2.09,1.38-3.16,3a14.32,14.32,0,0,1,2-.61,13,13,0,0,0,2.66-.17A4.35,4.35,0,0,0,27.07,34.92Z"/><polygon class="cls-1" points="15.21 53.71 19.47 44.69 15.26 50.89 15.21 53.71"/><path class="cls-1" d="M272.3,0H0V72.94H274.78V0Zm0,70.46H2.48v-68H272.3Z"/></svg>